<svg id="Layer_1" xmlns="http://www.w3.org/2000/svg" viewBox="0 0 109.9 20.6"><style>.st1{fill:#fff}</style><path fill="#faa61a" d="M0 0h109.9v20.6H0z"/><path class="st1" d="M10.6 15.6c-1 .4-2 .5-3 .5s-1.8-.2-2.5-.7-1.3-1-1.7-1.8c-.4-.6-.6-1.5-.6-2.4 0-1.4.5-2.6 1.4-3.5.9-.9 2-1.4 3.4-1.4 1 0 2 .2 3.1.5v1.5c-1.2-.5-2.2-.8-3-.8-.6 0-1.2.2-1.7.5s-.9.7-1.1 1.3c-.3.6-.4 1.2-.4 1.9 0 .8.3 1.6.8 2.4.5.8 1.4 1.2 2.5 1.2.3 0 .7 0 1-.1.3 0 .9-.2 1.8-.5v1.4zM16.9 16.1c-1.3 0-2.4-.5-3.2-1.4s-1.2-2.1-1.2-3.5.4-2.6 1.2-3.5c.8-.9 1.9-1.4 3.2-1.4 1.3 0 2.4.5 3.2 1.4.8.9 1.2 2.1 1.2 3.5s-.4 2.6-1.2 3.5c-.8 1-1.9 1.4-3.2 1.4zm0-1.3c.8 0 1.5-.3 2-1s.7-1.5.7-2.7c0-1.1-.2-2-.7-2.7-.5-.6-1.2-1-2-1s-1.5.3-2 1-.7 1.5-.7 2.7c0 1.1.2 2 .7 2.7s1.1 1 2 1zM29.6 13.8c-.5.8-1 1.4-1.7 1.8-.7.4-1.3.6-1.8.6-.8 0-1.5-.3-2.1-1s-1-1.8-1-3.2c0-1.1.2-2.1.6-2.9s1-1.5 1.7-2 1.6-.7 2.6-.7c.3 0 .7 0 1.3.1h.4V2.3h1.6v13.6h-1.6v-2.1zm0-1.9v-4c-.6-.1-1.1-.2-1.5-.2-1 0-1.8.4-2.4 1.1-.6.7-1 1.8-1 3 0 .9.2 1.6.5 2.1s.7.7 1.2.7 1-.2 1.6-.7c.6-.5 1.1-1.1 1.6-2zM41.5 15.3c-1.3.6-2.4.9-3.5.9-.8 0-1.6-.2-2.3-.6s-1.2-1-1.6-1.8-.6-1.6-.6-2.5c0-.9.2-1.7.6-2.5.4-.8.9-1.4 1.6-1.8.7-.4 1.4-.7 2.3-.7 1.1 0 2 .4 2.7 1.2.7.8 1 2 1 3.7v.3h-6.5c0 .7.1 1.2.4 1.8.3.5.6.9 1.1 1.2s.9.4 1.5.4c1 0 2.1-.3 3.4-1v1.4zm-6.3-5h4.7v-.2c0-.8-.2-1.4-.6-1.8-.4-.5-.9-.7-1.5-.7s-1.2.2-1.6.7-.8 1.1-1 2zM45.4 16.3c-.4 0-.7-.1-1-.4s-.4-.6-.4-1 .1-.7.4-1c.3-.3.6-.4 1-.4s.7.1 1 .4c.3.3.4.6.4 1s-.1.7-.4 1-.6.4-1 .4zM57.1 15.6c-1 .4-2 .5-3 .5s-1.8-.2-2.5-.7-1.3-1-1.7-1.8c-.4-.7-.6-1.6-.6-2.5 0-1.4.5-2.6 1.4-3.5.9-.9 2-1.4 3.4-1.4 1 0 2 .2 3.1.5v1.5c-1.2-.4-2.2-.7-3.1-.7-.6 0-1.1.1-1.6.4s-.9.7-1.2 1.3c-.3.6-.4 1.2-.4 1.9 0 .8.3 1.6.8 2.4.5.8 1.4 1.2 2.5 1.2.3 0 .7 0 1-.1.3 0 .9-.2 1.8-.5v1.5zM61 15.9V3.6h-2.8V2.3h4.4v12.3h2.9v1.3H61zM75.1 6.5v9.4h-1.6v-2.1c-.5.8-1.1 1.3-1.7 1.7-.6.4-1.2.6-1.8.6-.6 0-1.1-.1-1.5-.4-.5-.3-.8-.7-1-1.2-.2-.5-.3-1.4-.3-2.8V6.5h1.6v5.4c0 .9 0 1.5.1 1.8.1.3.2.5.5.7.2.2.5.3.8.3.6 0 1.1-.3 1.8-.8s1.2-1.2 1.6-2V6.5h1.5zM79.2 8.6c.5-.8 1.1-1.4 1.7-1.8.7-.4 1.3-.6 1.8-.6.8 0 1.5.3 2.1 1 .6.7.9 1.7.9 3.1 0 1.1-.2 2.1-.6 2.9-.4.9-1 1.5-1.7 2-.6.6-1.4.8-2.5.8-.3 0-.7 0-1.3-.1h-2V2.3h1.6v6.3zm0 1.9v4c.6.1 1.1.2 1.6.2.9 0 1.7-.4 2.4-1.1.6-.7 1-1.8 1-3 0-.9-.2-1.6-.5-2.1s-.8-.7-1.2-.7c-.5 0-1 .2-1.6.7-.7.5-1.3 1.1-1.7 2zM95.8 19c-1.6-.1-2.9-.5-3.9-1.3s-1.9-1.8-2.5-3.2c-.6-1.3-1-2.7-1-4 0-1.3.3-2.7 1-4 .6-1.3 1.5-2.4 2.5-3.2 1.1-.8 2.4-1.2 3.9-1.3v1.3c-1.2.1-2.2.5-3 1.2-.8.7-1.5 1.5-2 2.6s-.8 2.2-.8 3.4c0 1.2.2 2.3.7 3.4.5 1.1 1.1 1.9 2 2.6.8.7 1.9 1.1 3 1.2V19zM98.4 2.1c1.6.1 2.9.5 3.9 1.3 1.1.8 1.9 1.8 2.5 3.2s1 2.7 1 4c0 1.3-.3 2.7-1 4s-1.5 2.4-2.5 3.2-2.4 1.2-3.9 1.3v-1.3c1.2-.1 2.2-.5 3-1.2.8-.7 1.5-1.5 2-2.6s.7-2.2.7-3.4c0-1.2-.2-2.3-.7-3.4s-1.1-1.9-2-2.6c-.8-.7-1.9-1.1-3-1.2V2.1z"/></svg>